<?xml version="1.0" encoding="utf-8"?>
<!-- Generator: Adobe Illustrator 25.4.1, SVG Export Plug-In . SVG Version: 6.00 Build 0)  -->
<svg version="1.1" id="Livello_1" xmlns="http://www.w3.org/2000/svg" xmlns:xlink="http://www.w3.org/1999/xlink" x="0px"
	y="0px" viewBox="0 0 191.8 191.7" style="enable-background:new 0 0 191.8 191.7;" xml:space="preserve">
	<style type="text/css">
		.st0 {
			fill: #282828;
		}

		.st1 {
			fill: #FFFFFF;
		}
	</style>
	<path class="st0" d="M95.9,191.7c19,0,37.5-5.6,53.3-16.2c15.8-10.6,28.1-25.5,35.3-43c7.3-17.5,9.2-36.8,5.5-55.4
	c-3.7-18.6-12.8-35.7-26.2-49.1S133.3,5.5,114.7,1.8S76.8,0,59.3,7.3s-32.5,19.5-43,35.3C5.7,58.3,0,76.8,0,95.8
	c0,25.4,10.1,49.8,28.1,67.8S70.5,191.7,95.9,191.7z" />
	<polygon class="st1" points="28.9,151.4 101.8,25.7 121,25.7 129.1,57 148.3,57 135,81.7 154.1,151.4 134.2,151.4 122.1,104.5 
	94.9,151.4 72.4,151.4 114.7,77.3 108.1,52.3 51,151.4 " />
</svg>