<?xml version="1.0" encoding="utf-8"?>
<!-- Generator: Adobe Illustrator 25.4.1, SVG Export Plug-In . SVG Version: 6.00 Build 0)  -->
<svg version="1.1" id="Livello_1" xmlns="http://www.w3.org/2000/svg" xmlns:xlink="http://www.w3.org/1999/xlink" x="0px"
	y="0px" viewBox="0 0 191.8 191.7" style="enable-background:new 0 0 191.8 191.7;" xml:space="preserve">
	<style type="text/css">
		.st0 {
			fill: #ECC000;
		}

		.st1 {
			fill: #FFFFFF;
		}
	</style>
	<path class="st0" d="M95.9,191.7c19,0,37.5-5.6,53.3-16.2c15.8-10.6,28.1-25.5,35.3-43c7.3-17.5,9.2-36.8,5.5-55.4
	c-3.7-18.6-12.8-35.7-26.2-49.1S133.3,5.5,114.7,1.8S76.8,0,59.3,7.3s-32.5,19.5-43,35.3C5.7,58.3,0,76.8,0,95.8
	c0,25.4,10.1,49.8,28.1,67.8S70.5,191.7,95.9,191.7z" />
	<g>
		<rect x="85.4" y="85.4" transform="matrix(0.7071 -0.7071 0.7071 0.7071 -39.714 95.8722)" class="st1" width="20.9"
			height="20.9" />
		<rect x="134.4" y="85.4" transform="matrix(0.7071 -0.7071 0.7071 0.7071 -25.3656 130.5167)" class="st1" width="20.9"
			height="20.9" />
		<rect x="36.4" y="85.5" transform="matrix(0.7071 -0.7071 0.7071 0.7071 -54.0932 61.2404)" class="st1" width="20.9"
			height="20.9" />
		<polygon class="st1" points="135.1,120.3 95.8,159.5 56.6,120.3 71.4,105.6 95.8,130 120.3,105.6 	" />
		<polygon class="st1" points="56.6,71.4 95.8,32.2 135.1,71.4 120.3,86.1 95.8,61.6 71.4,86.1 	" />
	</g>
</svg>