<?xml version="1.0" encoding="utf-8"?>
<!-- Generator: Adobe Illustrator 25.4.1, SVG Export Plug-In . SVG Version: 6.00 Build 0)  -->
<svg version="1.1" id="Livello_1" xmlns="http://www.w3.org/2000/svg" xmlns:xlink="http://www.w3.org/1999/xlink" x="0px"
	y="0px" viewBox="0 0 256 256" style="enable-background:new 0 0 256 256;" xml:space="preserve">
	<style type="text/css">
		.st0 {
			fill: #F4D345;
		}

		.st1 {
			fill: #FFFFFF;
		}
	</style>
	<path class="st0" d="M128,256c25.3,0,50.1-7.5,71.1-21.6s37.5-34.1,47.1-57.4c9.7-23.4,12.2-49.1,7.3-74
	c-4.9-24.8-17.1-47.6-35-65.5S177.8,7.4,153,2.5s-50.6-2.4-74,7.3S35.6,35.9,21.6,56.9C7.5,77.9,0,102.7,0,128
	c0,33.9,13.5,66.5,37.5,90.5S94.1,256,128,256z" />
	<g>

		<rect x="67.8" y="114.1" transform="matrix(0.7071 -0.7071 0.7071 0.7071 -53.1206 127.9262)" class="st1"
			width="120.1" height="27.9" />

		<rect x="179.4" y="114.1" transform="matrix(0.7071 -0.7071 0.7071 0.7071 -33.918 174.2128)" class="st1" width="27.9"
			height="27.9" />

		<rect x="48.6" y="114.1" transform="matrix(0.7071 -0.7071 0.7071 0.7071 -72.2371 81.7244)" class="st1" width="27.9"
			height="27.9" />
		<polygon class="st1" points="213,128 127.9,213 108.2,193.4 193.3,108.4 	" />
		<polygon class="st1" points="75.5,95.4 127.9,43.1 147.6,62.9 95.3,115 	" />
	</g>
</svg>