<?xml version="1.0" encoding="utf-8"?>
<!-- Generator: Adobe Illustrator 25.4.1, SVG Export Plug-In . SVG Version: 6.00 Build 0)  -->
<svg version="1.1" id="Livello_1" xmlns="http://www.w3.org/2000/svg" xmlns:xlink="http://www.w3.org/1999/xlink" x="0px"
	y="0px" viewBox="0 0 191.8 191.7" style="enable-background:new 0 0 191.8 191.7;" xml:space="preserve">
	<style type="text/css">
		.st0 {
			fill: #FFFFFF;
		}

		.st1 {
			fill: #3B3B3B;
		}

		.st2 {
			fill: #979797;
		}

		.st3 {
			fill: #141414;
		}
	</style>
	<path class="st0" d="M95.9,191.7c19,0,37.5-5.6,53.3-16.2c15.8-10.6,28.1-25.5,35.3-43c7.3-17.5,9.2-36.8,5.5-55.4
	c-3.7-18.6-12.8-35.7-26.2-49.1S133.3,5.5,114.7,1.8S76.8,0,59.3,7.3s-32.5,19.5-43,35.3C5.7,58.3,0,76.8,0,95.8
	c0,25.4,10.1,49.8,28.1,67.8S70.5,191.7,95.9,191.7z" />
	<g>
		<polygon class="st1" points="43.4,97.4 95.9,127.6 148.4,97.4 95.9,10.3 	" />
		<polygon class="st2" points="43.4,107.3 95.9,138.6 95.9,181.3 	" />
		<polygon class="st1" points="148.4,107.3 95.9,138.6 95.9,181.3 	" />
		<polyline class="st2" points="95.9,10.3 43.4,97.4 95.9,73.7 	" />
		<path class="st3" d="M95.9,127.6l52.5-30.2L95.9,73.7C95.9,91.7,95.9,109.7,95.9,127.6z" />
	</g>
</svg>