<?xml version="1.0" encoding="utf-8"?>
<!-- Generator: Adobe Illustrator 25.4.1, SVG Export Plug-In . SVG Version: 6.00 Build 0)  -->
<svg version="1.1" id="Livello_1" xmlns="http://www.w3.org/2000/svg" xmlns:xlink="http://www.w3.org/1999/xlink" x="0px"
	y="0px" viewBox="0 0 191.8 191.7" style="enable-background:new 0 0 191.8 191.7;" xml:space="preserve">
	<style type="text/css">
		.st0 {
			fill: #2775C9;
		}

		.st1 {
			fill: #FFFFFF;
		}
	</style>
	<g>
		<path class="st0" d="M95.9,191.7c19,0,37.5-5.6,53.3-16.2s28.1-25.5,35.3-43c7.3-17.5,9.2-36.8,5.5-55.4S177.2,41.4,163.8,28
		S133.3,5.5,114.7,1.8S76.8,0,59.3,7.3s-32.5,19.5-43,35.3C5.7,58.3,0,76.8,0,95.8c0,25.4,10.1,49.8,28.1,67.8
		S70.5,191.7,95.9,191.7z" />
	</g>
	<g>
		<path class="st1" d="M125.5,111.8c0-15.7-9.5-21-28-23.5c-13.6-2-16.3-5.2-16.3-11.5c0-6.4,4.6-10.3,13.4-10.3
		c8,0,12.7,2.8,14.6,9.3c0.2,0.7,0.6,1.3,1.2,1.8c0.6,0.4,1.3,0.7,2,0.7h7.1c0.5,0,0.9-0.1,1.3-0.3c0.4-0.2,0.8-0.5,1.1-0.8
		s0.5-0.8,0.6-1.2c0.1-0.4,0.1-0.9,0.1-1.4c-2.2-10.2-9.1-16.4-20-18.3V45.4c0-0.9-0.4-1.7-1-2.4c-0.6-0.6-1.5-1-2.4-1h-6.7
		c-0.9,0-1.7,0.4-2.4,1c-0.6,0.6-1,1.5-1,2.4v10.4c-13.4,1.9-21.9,10.8-21.9,22.1c0,14.7,9,20.4,27.7,23
		c12.8,2.1,16.4,4.8,16.4,12.1c0,7.2-6.2,12.1-14.9,12.1c-11.7,0-15.7-5.1-17-11.8c-0.2-0.8-0.6-1.5-1.2-1.9
		c-0.6-0.5-1.4-0.8-2.1-0.8h-7.7c-0.5,0-0.9,0.1-1.3,0.3c-0.4,0.2-0.8,0.5-1.1,0.8s-0.5,0.8-0.6,1.2c-0.1,0.4-0.1,0.9-0.1,1.4
		c1.9,11.2,9.1,19.4,23.8,21.4v10.6c0,0.9,0.4,1.7,1,2.4c0.6,0.6,1.5,1,2.4,1h6.7c0.9,0,1.7-0.4,2.4-1c0.6-0.6,1-1.5,1-2.4v-10.6
		C116.7,133.4,125.5,123.8,125.5,111.8z" />
		<path class="st1" d="M73,159c-12.9-4.7-24.1-13.3-32-24.6c-7.9-11.3-12.1-24.8-12.1-38.6S33.1,68.6,41,57.3s19.1-19.9,32-24.6
		c0.8-0.4,1.5-1,2.1-1.7c0.5-0.7,0.8-1.6,0.8-2.5v-6.3c0.1-0.6,0-1.1-0.3-1.6c-0.2-0.5-0.6-0.9-1-1.3c-0.5-0.3-1-0.5-1.5-0.6
		c-0.6-0.1-1.1,0-1.6,0.3c-16.4,5.2-30.6,15.4-40.7,29.2S15.3,78.7,15.3,95.8s5.4,33.8,15.5,47.6s24.3,24.1,40.6,29.3
		c0.5,0.2,1.1,0.3,1.6,0.3c0.6-0.1,1.1-0.3,1.5-0.6c0.5-0.3,0.8-0.8,1-1.3s0.3-1.1,0.3-1.6v-6.3c0-0.9-0.3-1.8-0.8-2.5
		C74.6,159.9,73.9,159.3,73,159z" />
		<path class="st1" d="M120.7,19c-0.5-0.2-1.1-0.3-1.6-0.3c-0.6,0.1-1.1,0.3-1.5,0.6c-0.5,0.3-0.8,0.8-1,1.3s-0.3,1.1-0.3,1.6v6.3
		c0,0.9,0.3,1.8,0.8,2.5c0.5,0.7,1.2,1.3,2.1,1.7c12.9,4.7,24.1,13.3,32,24.6s12.1,24.7,12.1,38.5s-4.2,27.2-12.1,38.5
		c-7.9,11.3-19.1,19.9-32,24.6c-0.9,0.3-1.6,0.9-2.1,1.7s-0.8,1.7-0.8,2.6v6.3c-0.1,0.6,0,1.1,0.3,1.6c0.2,0.5,0.6,0.9,1,1.3
		c0.5,0.3,1,0.5,1.5,0.6c0.6,0.1,1.1,0,1.6-0.3c16.3-5.2,30.5-15.4,40.6-29.3c10.1-13.8,15.5-30.5,15.5-47.6s-5.4-33.8-15.5-47.6
		C151.3,34.4,137,24.2,120.7,19z" />
	</g>
</svg>