<?xml version="1.0" encoding="utf-8"?>
<!-- Generator: Adobe Illustrator 25.4.1, SVG Export Plug-In . SVG Version: 6.00 Build 0)  -->
<svg version="1.1" id="Livello_1" xmlns="http://www.w3.org/2000/svg" xmlns:xlink="http://www.w3.org/1999/xlink" x="0px"
	y="0px" viewBox="0 0 256 256" style="enable-background:new 0 0 256 256;" xml:space="preserve">
	<style type="text/css">
		.st0 {
			fill: #E0E0E0;
		}

		.st1 {
			fill: #979797;
		}

		.st2 {
			fill: #FFFFFF;
		}

		.st3 {
			fill: #282828;
		}
	</style>
	<path class="st0" d="M128,256c25.3,0,50.1-7.5,71.1-21.6s37.5-34.1,47.1-57.4c9.7-23.4,12.2-49.1,7.3-74
	c-4.9-24.8-17.1-47.6-35-65.5S177.8,7.4,153,2.5s-50.6-2.4-74,7.3S35.6,35.9,21.6,56.9C7.5,77.9,0,102.7,0,128
	c0,33.9,13.5,66.5,37.5,90.5S94.1,256,128,256z" />
	<path class="st1" d="M128,223.9c19,0,37.5-5.6,53.3-16.2s28.1-25.5,35.3-43c7.3-17.5,9.2-36.8,5.5-55.4s-12.8-35.7-26.2-49.1
	S165.4,37.7,146.8,34s-37.9-1.8-55.4,5.5S58.9,59,48.4,74.8C37.8,90.5,32.1,109,32.1,128c0,25.4,10.1,49.8,28.1,67.8
	S102.6,223.9,128,223.9z" />
	<polygon class="st2" points="61,183.6 133.9,57.9 153.1,57.9 161.2,89.2 180.4,89.2 167.1,113.9 186.2,183.6 166.3,183.6 
	154.2,136.7 127,183.6 104.5,183.6 146.8,109.5 140.2,84.5 83.1,183.6 " />
	<path class="st3" d="M213.4,85c8.4,0,16.6-2.5,23.6-7.2s12.5-11.3,15.6-19.1c3.2-7.8,4.1-16.3,2.4-24.5c-1.6-8.2-5.7-15.8-11.6-21.8
	c-5.9-5.9-13.5-10-21.8-11.6S205,0.1,197.2,3.3s-14.4,8.7-19,15.7c-4.7,7-7.2,15.2-7.2,23.6c0,11.3,4.5,22.1,12.5,30
	C191.4,80.5,202.2,85,213.4,85z" />
	<polygon class="st2" points="183.7,67.2 216,11.5 224.6,11.5 228.1,25.3 236.6,25.3 230.8,36.3 239.2,67.2 230.4,67.2 225,46.4 
	213,67.2 203,67.2 221.8,34.3 218.8,23.3 193.5,67.2 " />
</svg>