<?xml version="1.0" encoding="utf-8"?>
<!-- Generator: Adobe Illustrator 25.4.1, SVG Export Plug-In . SVG Version: 6.00 Build 0)  -->
<svg version="1.1" id="Livello_1" xmlns="http://www.w3.org/2000/svg" xmlns:xlink="http://www.w3.org/1999/xlink" x="0px"
	y="0px" viewBox="0 0 256 256" style="enable-background:new 0 0 256 256;" xml:space="preserve">
	<style type="text/css">
		.st0 {
			fill: #E0E0E0;
		}

		.st1 {
			fill: #282828;
		}

		.st2 {
			fill: #FFFFFF;
		}

		.st3 {
			fill: #ECC000;
		}
	</style>
	<path class="st0" d="M128,256c25.3,0,50.1-7.5,71.1-21.6s37.5-34.1,47.1-57.4c9.7-23.4,12.2-49.1,7.3-74
	c-4.9-24.8-17.1-47.6-35-65.5S177.8,7.4,153,2.5s-50.6-2.4-74,7.3S35.6,35.9,21.6,56.9C7.5,77.9,0,102.7,0,128
	c0,33.9,13.5,66.5,37.5,90.5S94.1,256,128,256z" />
	<path class="st1" d="M128,223.9c19,0,37.5-5.6,53.3-16.2s28.1-25.5,35.3-43c7.3-17.5,9.2-36.8,5.5-55.4s-12.8-35.7-26.2-49.1
	S165.4,37.7,146.8,34s-37.9-1.8-55.4,5.5S58.9,59,48.4,74.8C37.8,90.5,32.1,109,32.1,128c0,25.4,10.1,49.8,28.1,67.8
	S102.6,223.9,128,223.9z" />
	<g>

		<rect x="117.5" y="117.6" transform="matrix(0.7071 -0.7071 0.7071 0.7071 -53.0738 127.9704)" class="st2"
			width="20.9" height="20.9" />

		<rect x="166.5" y="117.6" transform="matrix(0.7071 -0.7071 0.7071 0.7071 -38.7213 162.6203)" class="st2"
			width="20.9" height="20.9" />

		<rect x="68.5" y="117.6" transform="matrix(0.7071 -0.7071 0.7071 0.7071 -67.4113 93.3206)" class="st2" width="20.9"
			height="20.9" />
		<polygon class="st2" points="167.2,152.5 127.9,191.7 88.7,152.5 103.5,137.8 127.9,162.2 152.4,137.8 	" />
		<polygon class="st2" points="88.7,103.6 127.9,64.4 167.2,103.6 152.4,118.3 127.9,93.8 103.5,118.3 	" />
	</g>
	<path class="st3"
		d="M213.4,85.2c8.4,0,16.7-2.5,23.7-7.2s12.5-11.3,15.7-19.1s4.1-16.3,2.4-24.6s-5.7-15.9-11.6-21.8
	c-6-6-13.5-10-21.8-11.6S205,0.1,197.2,3.3S182.7,12,178,19s-7.2,15.2-7.2,23.6c0,11.3,4.5,22.1,12.5,30.1S202.1,85.2,213.4,85.2z" />
	<g>
		<rect x="208.7" y="38" transform="matrix(0.7071 -0.7071 0.7071 0.7071 32.3215 163.3533)" class="st2" width="9.3"
			height="9.3" />
		<rect x="230.5" y="38" transform="matrix(0.7071 -0.7071 0.7071 0.7071 38.7231 178.7527)" class="st2" width="9.3"
			height="9.3" />
		<rect x="187" y="38.1" transform="matrix(0.7071 -0.7071 0.7071 0.7071 25.9386 148.0458)" class="st2" width="9.3"
			height="9.3" />
		<polygon class="st2" points="230.8,53.5 213.3,70.9 195.9,53.5 202.5,47 213.3,57.8 224.2,47 	" />
		<polygon class="st2" points="195.9,31.8 213.3,14.4 230.8,31.8 224.2,38.3 213.3,27.4 202.5,38.3 	" />
	</g>
</svg>