<?xml version="1.0" encoding="utf-8"?>
<!-- Generator: Adobe Illustrator 25.4.1, SVG Export Plug-In . SVG Version: 6.00 Build 0)  -->
<svg version="1.1" id="Livello_1" xmlns="http://www.w3.org/2000/svg" xmlns:xlink="http://www.w3.org/1999/xlink" x="0px"
	y="0px" viewBox="0 0 256 256" style="enable-background:new 0 0 256 256;" xml:space="preserve">
	<style type="text/css">
		.st0 {
			fill: #E0E0E0;
		}

		.st1 {
			fill: #3B3B3B;
		}

		.st2 {
			fill: #979797;
		}

		.st3 {
			fill: #141414;
		}

		.st4 {
			fill: #FFFFFF;
		}
	</style>
	<path class="st0" d="M128,256c25.3,0,50.1-7.5,71.1-21.6s37.5-34.1,47.1-57.4c9.7-23.4,12.2-49.1,7.3-74
	c-4.9-24.8-17.1-47.6-35-65.5S177.8,7.4,153,2.5s-50.6-2.4-74,7.3S35.6,35.9,21.6,56.9C7.5,77.9,0,102.7,0,128
	c0,33.9,13.5,66.5,37.5,90.5S94.1,256,128,256z" />
	<path d="M128,223.9c19,0,37.5-5.6,53.3-16.2s28.1-25.5,35.3-43c7.3-17.5,9.2-36.8,5.5-55.4s-12.8-35.7-26.2-49.1
	S165.4,37.7,146.8,34s-37.9-1.8-55.4,5.5S58.9,59,48.4,74.8C37.8,90.5,32.1,109,32.1,128c0,25.4,10.1,49.8,28.1,67.8
	S102.6,223.9,128,223.9z" />
	<g>
		<polygon class="st1" points="75.5,129.6 128,159.8 180.5,129.6 128,42.5 	" />
		<polygon class="st2" points="75.5,139.5 128,170.8 128,213.5 	" />
		<polygon class="st1" points="180.5,139.5 128,170.8 128,213.5 	" />
		<polyline class="st2" points="128,42.5 75.5,129.6 128,105.9 	" />
		<path class="st3" d="M128,159.8l52.5-30.2L128,105.9C128,123.9,128,141.9,128,159.8z" />
	</g>
	<g>
		<path class="st4" d="M213.4,85.1c8.4,0,16.6-2.5,23.7-7.2s12.5-11.3,15.7-19.1c3.2-7.8,4.1-16.3,2.4-24.6s-5.7-15.8-11.6-21.8
		c-5.9-5.9-13.5-10-21.8-11.6c-8.3-1.6-16.8-0.8-24.6,2.4c-7.8,3.2-14.4,8.7-19.1,15.7c-4.7,7-7.2,15.2-7.2,23.6
		c0,11.3,4.5,22.1,12.5,30.1C191.3,80.7,202.2,85.1,213.4,85.1z" />
		<g>
			<polygon class="st1" points="190.1,43.3 213.4,56.7 236.7,43.3 213.4,4.6 		" />
			<polygon class="st2" points="190.1,47.7 213.4,61.6 213.4,80.5 		" />
			<polygon class="st1" points="236.7,47.7 213.4,61.6 213.4,80.5 		" />
			<polyline class="st2" points="213.4,4.6 190.1,43.3 213.4,32.8 		" />
			<path class="st3" d="M213.4,56.7l23.3-13.4l-23.3-10.5C213.4,40.8,213.4,48.8,213.4,56.7z" />
		</g>
	</g>
</svg>