<?xml version="1.0" encoding="utf-8"?>
<!-- Generator: Adobe Illustrator 25.4.1, SVG Export Plug-In . SVG Version: 6.00 Build 0)  -->
<svg version="1.1" id="Livello_1" xmlns="http://www.w3.org/2000/svg" xmlns:xlink="http://www.w3.org/1999/xlink" x="0px"
	y="0px" viewBox="0 0 256 256" style="enable-background:new 0 0 256 256;" xml:space="preserve">
	<style type="text/css">
		.st0 {
			fill: #E0E0E0;
		}

		.st1 {
			fill: #2775C9;
		}

		.st2 {
			fill: #FFFFFF;
		}

		.st3 {
			fill: #3B3B3B;
		}

		.st4 {
			fill: #979797;
		}

		.st5 {
			fill: #141414;
		}
	</style>
	<path class="st0" d="M128,256c25.3,0,50.1-7.5,71.1-21.6s37.5-34.1,47.1-57.4c9.7-23.4,12.2-49.1,7.3-74
	c-4.9-24.8-17.1-47.6-35-65.5S177.8,7.4,153,2.5s-50.6-2.4-74,7.3S35.6,35.9,21.6,56.9C7.5,77.9,0,102.7,0,128
	c0,33.9,13.5,66.5,37.5,90.5S94.1,256,128,256z" />
	<g>
		<path class="st1" d="M128,225.2c19,0,37.5-5.6,53.3-16.2s28.1-25.5,35.3-43c7.3-17.5,9.2-36.8,5.5-55.4s-12.8-35.7-26.2-49.1
		S165.4,39,146.8,35.3s-37.9-1.8-55.4,5.5s-32.5,19.5-43,35.3c-10.6,15.7-16.3,34.2-16.3,53.2c0,25.4,10.1,49.8,28.1,67.8
		S102.6,225.2,128,225.2z" />
	</g>
	<g>
		<path class="st2" d="M157.6,145.3c0-15.7-9.5-21-28-23.5c-13.6-2-16.3-5.2-16.3-11.5c0-6.4,4.6-10.3,13.4-10.3
		c8,0,12.7,2.8,14.6,9.3c0.2,0.7,0.6,1.3,1.2,1.8c0.6,0.4,1.3,0.7,2,0.7h7.1c0.5,0,0.9-0.1,1.3-0.3c0.4-0.2,0.8-0.5,1.1-0.8
		s0.5-0.8,0.6-1.2c0.1-0.4,0.1-0.9,0.1-1.4c-2.2-10.2-9.1-16.4-20-18.3V78.9c0-0.9-0.4-1.7-1-2.4c-0.6-0.6-1.5-1-2.4-1h-6.7
		c-0.9,0-1.7,0.4-2.4,1c-0.6,0.6-1,1.5-1,2.4v10.4c-13.4,1.9-21.9,10.8-21.9,22.1c0,14.7,9,20.4,27.7,23
		c12.8,2.1,16.4,4.8,16.4,12.1c0,7.2-6.2,12.1-14.9,12.1c-11.7,0-15.7-5.1-17-11.8c-0.2-0.8-0.6-1.5-1.2-1.9
		c-0.6-0.5-1.4-0.8-2.1-0.8h-7.7c-0.5,0-0.9,0.1-1.3,0.3s-0.8,0.5-1.1,0.8c-0.3,0.3-0.5,0.8-0.6,1.2s-0.1,0.9-0.1,1.4
		c1.9,11.2,9.1,19.4,23.8,21.4v10.6c0,0.9,0.4,1.7,1,2.4c0.6,0.6,1.5,1,2.4,1h6.7c0.9,0,1.7-0.4,2.4-1c0.6-0.6,1-1.5,1-2.4v-10.6
		C148.8,166.9,157.6,157.3,157.6,145.3z" />
		<path class="st2" d="M105.1,192.5c-12.9-4.7-24.1-13.3-32-24.6C65.2,156.6,61,143.1,61,129.3s4.2-27.2,12.1-38.5s19.1-19.9,32-24.6
		c0.8-0.4,1.5-1,2.1-1.7c0.5-0.7,0.8-1.6,0.8-2.5v-6.3c0.1-0.6,0-1.1-0.3-1.6c-0.2-0.5-0.6-0.9-1-1.3c-0.5-0.3-1-0.5-1.5-0.6
		c-0.6-0.1-1.1,0-1.6,0.3C87.2,57.7,73,67.9,62.9,81.7s-15.5,30.5-15.5,47.6s5.4,33.8,15.5,47.6s24.3,24.1,40.6,29.3
		c0.5,0.2,1.1,0.3,1.6,0.3c0.6-0.1,1.1-0.3,1.5-0.6c0.5-0.3,0.8-0.8,1-1.3s0.3-1.1,0.3-1.6v-6.3c0-0.9-0.3-1.8-0.8-2.5
		C106.7,193.4,106,192.8,105.1,192.5z" />
		<path class="st2" d="M152.8,52.5c-0.5-0.2-1.1-0.3-1.6-0.3c-0.6,0.1-1.1,0.3-1.5,0.6c-0.5,0.3-0.8,0.8-1,1.3s-0.3,1.1-0.3,1.6V62
		c0,0.9,0.3,1.8,0.8,2.5c0.5,0.7,1.2,1.3,2.1,1.7c12.9,4.7,24.1,13.3,32,24.6s12.1,24.7,12.1,38.5s-4.2,27.2-12.1,38.5
		c-7.9,11.3-19.1,19.9-32,24.6c-0.9,0.3-1.6,0.9-2.1,1.7s-0.8,1.7-0.8,2.6v6.3c-0.1,0.6,0,1.1,0.3,1.6c0.2,0.5,0.6,0.9,1,1.3
		c0.5,0.3,1,0.5,1.5,0.6c0.6,0.1,1.1,0,1.6-0.3c16.3-5.2,30.5-15.4,40.6-29.3c10.1-13.8,15.5-30.5,15.5-47.6s-5.4-33.8-15.5-47.6
		C183.4,67.9,169.1,57.7,152.8,52.5z" />
	</g>
	<g>
		<path class="st2" d="M213.4,85.2c8.4,0,16.6-2.5,23.7-7.2s12.5-11.3,15.7-19.1s4.1-16.3,2.4-24.6s-5.7-15.8-11.6-21.8
		c-5.9-5.9-13.5-10-21.8-11.6S205,0.1,197.2,3.3S182.8,12,178.1,19c-4.7,7-7.2,15.2-7.2,23.6c0,11.3,4.5,22.1,12.5,30.1
		C191.3,80.8,202.2,85.2,213.4,85.2z" />
		<g>
			<polygon class="st3" points="190.1,43.4 213.4,56.8 236.7,43.4 213.4,4.7 		" />
			<polygon class="st4" points="190.1,47.8 213.4,61.7 213.4,80.6 		" />
			<polygon class="st3" points="236.7,47.8 213.4,61.7 213.4,80.6 		" />
			<polyline class="st4" points="213.4,4.7 190.1,43.4 213.4,32.9 		" />
			<path class="st5" d="M213.4,56.8l23.3-13.4l-23.3-10.5C213.4,40.9,213.4,48.9,213.4,56.8z" />
		</g>
	</g>
</svg>